<svg width="214" height="171" viewBox="0 0 214 171" fill="none" xmlns="http://www.w3.org/2000/svg">
<path d="M28.8428 107.61C20.5355 107.61 13.3561 106.751 7.30469 105.032L8.05664 101.434C12.998 102.973 19.9268 103.743 28.8428 103.743C34.1423 103.743 36.792 102.347 36.792 99.5537C36.792 97.3337 34.2318 96.2236 29.1113 96.2236H17.4023V92.3564H29.165C32.4593 92.3564 35.1986 92.9294 37.3828 94.0752C39.5671 95.221 40.6592 97.0472 40.6592 99.5537C40.6592 102.239 39.5492 104.262 37.3291 105.623C35.1449 106.948 32.3161 107.61 28.8428 107.61ZM40.0146 69.4756L36.3086 68.6699C36.6309 68.1328 36.792 67.2376 36.792 65.9844C36.792 62.8333 34.1423 61.2578 28.8428 61.2578C19.9268 61.2578 12.998 62.0277 8.05664 63.5674L7.30469 59.9688C13.3561 58.25 20.5355 57.3906 28.8428 57.3906C32.3161 57.3906 35.1449 58.1068 37.3291 59.5391C39.5492 60.9714 40.6592 63.1198 40.6592 65.9844C40.6592 67.5241 40.4443 68.6878 40.0146 69.4756ZM6.55273 56.3164L5.80078 52.5566C12.4967 50.623 20.1774 49.6562 28.8428 49.6562C34.4287 49.6562 39.0837 51.1243 42.8076 54.0605C46.5316 56.9609 48.3936 60.9355 48.3936 65.9844C48.3936 68.0254 47.9997 70.0485 47.2119 72.0537L43.6133 70.6035C44.222 69.2428 44.5264 67.7031 44.5264 65.9844C44.5264 62.0456 43.0404 58.984 40.0684 56.7998C37.0964 54.6156 33.3545 53.5234 28.8428 53.5234C20.5355 53.5234 13.1055 54.4544 6.55273 56.3164ZM53.8721 75.7061L50.7031 73.7725C51.7415 71.3018 52.2607 68.7057 52.2607 65.9844C52.2607 59.8613 50.0228 54.9736 45.5469 51.3213C41.071 47.6331 35.5029 45.7891 28.8428 45.7891C20.6429 45.7891 12.7116 46.8275 5.04883 48.9043L4.24316 45.0371C11.6553 42.9603 19.8551 41.9219 28.8428 41.9219C33.8558 41.9219 38.4212 42.8887 42.5391 44.8223C46.6569 46.7559 49.9512 49.5846 52.4219 53.3086C54.8926 56.9967 56.1279 61.222 56.1279 65.9844C56.1279 69.4577 55.376 72.6982 53.8721 75.7061ZM59.6191 81.292L56.8262 78.3916C58.9388 74.5602 59.9951 70.4245 59.9951 65.9844C59.9951 60.5059 58.5807 55.6182 55.752 51.3213C52.959 47.0244 49.1992 43.748 44.4727 41.4922C39.7819 39.2005 34.5719 38.0547 28.8428 38.0547C20.07 38.0547 11.6195 39.1289 3.49121 41.2773L2.68555 37.4102C10.4915 35.2617 19.2106 34.1875 28.8428 34.1875C33.641 34.1875 38.1706 34.9574 42.4316 36.4971C46.7285 38.0368 50.4525 40.1852 53.6035 42.9424C56.7546 45.6637 59.2432 49.0296 61.0693 53.04C62.9313 57.0146 63.8623 61.3294 63.8623 65.9844C63.8623 71.6061 62.4479 76.7087 59.6191 81.292ZM28.8428 111.478C33.3545 111.478 37.0964 110.439 40.0684 108.362C43.0404 106.25 44.5264 103.313 44.5264 99.5537C44.5264 96.0804 43.0583 93.377 40.1221 91.4434C37.2217 89.474 33.7126 88.4893 29.5947 88.4893H17.4023V84.6221H29.6484C34.8405 84.6221 39.2627 85.9827 42.915 88.7041C46.5674 91.3896 48.3936 95.0062 48.3936 99.5537C48.3936 104.459 46.5316 108.326 42.8076 111.155C39.0837 113.948 34.4287 115.345 28.8428 115.345C20.1774 115.345 12.4967 114.378 5.80078 112.444L6.55273 108.685C13.1055 110.547 20.5355 111.478 28.8428 111.478ZM28.8428 119.212C35.5029 119.212 41.071 117.439 45.5469 113.895C50.0228 110.314 52.2607 105.534 52.2607 99.5537C52.2607 93.8604 50.0586 89.3128 45.6543 85.9111C41.2858 82.4736 36.0221 80.7549 29.8633 80.7549H17.4023V76.8877H29.9707C34.6973 76.8877 39.0658 77.8903 43.0762 79.8955C47.0866 81.8649 50.2555 84.6042 52.583 88.1133C54.9463 91.5866 56.1279 95.4001 56.1279 99.5537C56.1279 104.209 54.8926 108.344 52.4219 111.961C49.9512 115.577 46.6569 118.335 42.5391 120.232C38.4212 122.13 33.8558 123.079 28.8428 123.079C19.8551 123.079 11.6553 122.041 4.24316 119.964L5.04883 116.097C12.7116 118.174 20.6429 119.212 28.8428 119.212ZM28.8428 126.946C34.5719 126.946 39.7819 125.836 44.4727 123.616C49.1992 121.36 52.959 118.138 55.752 113.948C58.5807 109.723 59.9951 104.925 59.9951 99.5537C59.9951 95.6149 59.1357 91.9626 57.417 88.5967C55.6982 85.195 53.4245 82.3841 50.5957 80.1641C47.8027 77.9082 44.6159 76.1536 41.0352 74.9004C37.4544 73.6471 33.7663 73.0205 29.9707 73.0205H17.4023V69.1533H30.1855C34.5898 69.1533 38.8151 69.8874 42.8613 71.3555C46.9434 72.8236 50.5241 74.8467 53.6035 77.4248C56.7188 80.0029 59.2074 83.2256 61.0693 87.0928C62.9313 90.9242 63.8623 95.0778 63.8623 99.5537C63.8623 105.641 62.2868 111.084 59.1357 115.882C55.9847 120.68 51.7415 124.368 46.4062 126.946C41.1068 129.524 35.2523 130.813 28.8428 130.813C19.2106 130.813 10.4915 129.739 2.68555 127.591L3.49121 123.724C11.6195 125.872 20.07 126.946 28.8428 126.946Z" fill="#333333"/>
<path d="M135.921 39.5391C132.806 35.6003 127.739 33.6309 120.721 33.6309C117.713 33.6309 115.117 33.8815 112.933 34.3828V104.046C113.935 104.189 114.992 104.261 116.102 104.261C124.445 104.261 131.069 101.88 135.975 97.1172C140.558 92.6771 142.85 87.109 142.85 80.4131C142.85 74.5407 141.274 69.9036 138.123 66.502C135.008 63.1003 130.818 61.3994 125.555 61.3994C123.693 61.3994 122.368 61.5605 121.58 61.8828C119.36 62.7064 117.749 62.9212 116.746 62.5273C116.281 62.3483 115.976 61.9007 115.833 61.1846C115.726 60.4684 115.869 59.9134 116.263 59.5195C116.657 59.0898 117.212 58.7676 117.928 58.5527C119.682 57.944 122.153 57.6396 125.34 57.6396C128.527 57.6396 131.409 58.0872 133.987 58.9824C136.565 59.8776 138.821 61.2741 140.755 63.1719C144.944 67.2897 147.039 73.2158 147.039 80.9502C147.039 89.2217 143.942 95.8997 137.747 100.984C131.982 105.675 124.946 108.021 116.639 108.021C107.293 108.021 99.7376 105.066 93.9727 99.1582C87.5273 92.5697 84.3047 83.0986 84.3047 70.7451C84.3047 58.141 87.8138 48.097 94.832 40.6133C101.456 33.5592 109.871 30.0322 120.076 30.0322C126.199 30.0322 131.535 31.3213 136.082 33.8994C139.448 35.8688 141.131 37.874 141.131 39.915C141.131 41.0609 140.451 41.6338 139.09 41.6338C138.302 41.6338 137.675 41.401 137.21 40.9355L135.921 39.5391Z" fill="#333333"/>
<path d="M180.78 135.1C174.693 135.1 169.34 133.927 164.72 131.58C160.173 129.16 156.617 126.043 154.05 122.23C151.483 118.417 150.2 114.383 150.2 110.13C150.2 106.317 151.337 102.797 153.61 99.57C154.49 98.3233 155.553 97.26 156.8 96.38C158.047 95.4267 159.367 94.6933 160.76 94.18C158.193 94.18 156.03 93.3 154.27 91.54C152.583 89.78 151.74 87.2133 151.74 83.84V58.43C151.74 56.3033 152.253 54.5067 153.28 53.04C154.307 51.5733 155.59 50.4367 157.13 49.63C158.67 48.8233 160.21 48.42 161.75 48.42H199.81C202.303 48.42 204.393 49.2633 206.08 50.95C207.84 52.6367 208.72 54.7633 208.72 57.33V67.89C208.72 70.8233 207.913 73.1333 206.3 74.82C204.687 76.4333 202.267 77.24 199.04 77.24H191.56C196.693 79.22 200.653 81.75 203.44 84.83C206.227 87.8367 208.17 91.1733 209.27 94.84C210.37 98.4333 210.92 102.063 210.92 105.73C210.92 111.083 209.82 115.997 207.62 120.47C205.42 124.943 202.083 128.5 197.61 131.14C193.21 133.78 187.6 135.1 180.78 135.1ZM151.52 110.02C151.52 113.98 152.693 117.793 155.04 121.46C157.46 125.053 160.87 128.023 165.27 130.37C169.67 132.643 174.84 133.78 180.78 133.78C187.38 133.78 192.807 132.533 197.06 130.04C201.313 127.473 204.467 124.063 206.52 119.81C208.573 115.557 209.6 110.863 209.6 105.73C209.6 101.623 208.867 97.6267 207.4 93.74C206.007 89.8533 203.623 86.4433 200.25 83.51C196.877 80.5767 192.293 78.4867 186.5 77.24H182.65C182.21 77.24 181.99 77.02 181.99 76.58C181.99 76.14 182.21 75.92 182.65 75.92H199.04C204.613 75.92 207.4 73.2433 207.4 67.89V57.33C207.4 55.2033 206.667 53.4067 205.2 51.94C203.733 50.4733 201.937 49.74 199.81 49.74H161.75C159.623 49.74 157.643 50.5467 155.81 52.16C153.977 53.7 153.06 55.79 153.06 58.43V83.84C153.06 86.9933 153.83 89.3033 155.37 90.77C156.983 92.2367 158.853 92.97 160.98 92.97H166.04C167.58 92.97 169.083 93.2633 170.55 93.85C172.09 94.4367 173.483 95.1333 174.73 95.94L183.09 101.22C183.31 101.293 183.42 101.477 183.42 101.77C183.42 102.063 183.273 102.247 182.98 102.32C182.687 102.393 182.43 102.357 182.21 102.21L173.85 96.93C171.943 95.6833 169.78 94.9867 167.36 94.84C164.94 94.62 162.557 94.95 160.21 95.83C157.937 96.71 156.067 98.25 154.6 100.45C152.547 103.457 151.52 106.647 151.52 110.02Z" fill="#333333"/>
</svg>
